#!OML:ASF Y:\EmotionMaleHayes\Project 1\Capture day 1\Session 1\Male1.ASF
:FULLY-SPECIFIED
:DEGREES
2955
root -24.6803 16.8473 12.5861 1256.72 -57.1371 531.851
lowerback -0.0106312 0.0942719 -5.25088
upperback 2.07415 0.161244 -0.740824
thorax 2.12888 -0.0249442 2.18191
lowerneck -25.8351 1.05443 2.49859
upperneck 25.789 -0.939539 3.51274
head 12.9585 0.243353 0.753586
rclavicle -4.11484e-014 4.67144e-015
rhumerus 36.3556 15.0525 -34.3562
rradius 40.5019
rwrist -4.81139
rhand -7.0205 -31.0923
rfingers 7.12502
rthumb 18.8511 -60.1988
lclavicle -4.11484e-014 4.67144e-015
lhumerus 37.0762 -11.2919 34.3211
lradius 35.7952
lwrist 1.84151
lhand -17.1073 -25.6983
lfingers 7.12502
lthumb 9.13179 4.08396
rfemur 15.1844 -5.44195 22.2649
rtibia 10.3587
rfoot -20.6335 -10.2352
rtoes 29.2831
lfemur 11.007 4.78734 -4.1385
ltibia 46.4872
lfoot -6.22896 -2.20395
ltoes -18.2443
2956
root -24.7421 16.846 12.5299 1256.94 -56.297 531.776
lowerback -0.246944 0.188467 -5.17709
upperback 1.92935 0.300016 -0.709484
thorax 2.10174 0.0504874 2.17629
lowerneck -25.9777 1.01306 2.42623
upperneck 25.8416 -0.992591 3.55895
head 13.0091 0.221534 0.775497
rclavicle -8.7838e-014 -1.61016e-014
rhumerus 36.4477 14.7523 -34.2913
rradius 40.3801
rwrist -5.00567
rhand -7.38217 -31.1956
rfingers 7.12502
rthumb 18.5032 -60.3356
lclavicle -8.7838e-014 -1.61016e-014
lhumerus 37.3026 -11.0645 34.2969
lradius 35.877
lwrist 2.06859
lhand -17.3082 -25.5769
lfingers 7.12502
lthumb 8.93799 4.2138
rfemur 15.4884 -5.35233 22.1032
rtibia 10.0354
rfoot -20.5265 -9.55859
rtoes 29.3309
lfemur 10.1877 4.69043 -4.61565
ltibia 46.2617
lfoot -7.41645 -1.54821
ltoes -19.5552
2957
root -24.8098 16.835 12.473 1255.42 -55.4587 533.503
lowerback -0.294846 0.25102 -3.97739
upperback 1.86538 0.372546 -0.426309
thorax 2.05911 0.111051 1.798
lowerneck -26.098 1.01913 2.40694
upperneck 25.9376 -0.984718 3.54974
head 13.072 0.223851 0.77846
rclavicle -2.50966e-015 1.82882e-014
rhumerus 36.621 14.4725 -34.3357
rradius 40.2875
rwrist -5.07541
rhand -7.60568 -31.2731
rfingers 7.12502
rthumb 18.2882 -60.4334
lclavicle -2.50966e-015 1.82882e-014
lhumerus 37.4646 -10.8516 34.2636
lradius 35.9623
lwrist 2.20689
lhand -17.5525 -25.4452
lfingers 7.12502
lthumb 8.7022 4.35545
rfemur 16.0417 -5.16351 23.2694
rtibia 9.72607
rfoot -20.4922 -9.01579
rtoes 29.8112
lfemur 9.65223 4.5473 -3.74895
ltibia 46.0075
lfoot -8.47117 -1.12165
ltoes -19.9457
2958
root -24.8788 16.8306 12.4022 1254.09 -54.5368 535.248
lowerback -0.605711 0.296891 -2.89642
upperback 1.73125 0.430339 -0.0722309
thorax 2.09517 0.160188 1.55904
lowerneck -26.0269 1.07162 2.46355
upperneck 25.9454 -0.884365 3.40466
head 13.0582 0.251757 0.730396
rclavicle -2.11209e-015 -5.76476e-015
rhumerus 36.5104 14.4834 -34.1837
rradius 40.7094
rwrist -5.51803
rhand -7.548 -31.4742
rfingers 7.12502
rthumb 18.3437 -60.6293
lclavicle -2.11209e-015 -5.76476e-015
lhumerus 37.5376 -10.6471 34.2777
lradius 35.9735
lwrist 2.18972
lhand -17.6139 -25.9624
lfingers 7.12502
lthumb 8.64291 3.84068
rfemur 16.4768 -4.75563 24.637
rtibia 9.31777
rfoot -20.4738 -8.64728
rtoes 29.8485
lfemur 9.00858 4.56372 -2.73082
ltibia 45.617
lfoot -9.36782 -0.604595
ltoes -21.3329
2959
root -24.9275 16.8253 12.3345 1253.81 -53.7075 535.651
lowerback -0.619027 0.316453 -2.75113
upperback 1.57065 0.452683 0.0993717
thorax 1.93601 0.177809 1.65386
lowerneck -25.7542 1.1912 2.59726
upperneck 25.7784 -0.697398 3.24806
head 12.9329 0.320064 0.677727
rclavicle -3.24516e-014 -1.66979e-014
rhumerus 36.6762 13.3397 -35.9137
rradius 39.6245
rwrist -3.90046
rhand -7.18089 -30.647
rfingers 7.12502
rthumb 18.6968 -59.7685
lclavicle -3.24516e-014 -1.66979e-014
lhumerus 37.5515 -10.5099 34.0774
lradius 36.0616
lwrist 2.31103
lhand -17.6226 -26.893
lfingers 7.12502
lthumb 8.63458 2.91041
rfemur 16.8899 -4.21599 25.1816
rtibia 8.858
rfoot -20.7148 -8.49004
rtoes 29.6734
lfemur 8.2172 4.53614 -2.62023
ltibia 45.3825
lfoot -10.2652 0.0879204
ltoes -23.7337
2960
root -24.9859 16.8208 12.2769 1253.06 -52.8259 536.658
lowerback -0.65612 0.318713 -1.9615
upperback 1.40442 0.442694 0.2908
thorax 1.7899 0.187844 1.40694
lowerneck -25.5368 1.29352 2.61848
upperneck 25.7453 -0.575278 3.31084
head 12.8765 0.379865 0.718346
rclavicle -5.11871e-015 -1.90833e-014
rhumerus 37.0667 13.767 -35.2788
rradius 39.8363
rwrist -4.74285
rhand -7.28681 -30.9824
rfingers 7.12502
rthumb 18.595 -60.1136
lclavicle -5.11871e-015 -1.90833e-014
lhumerus 37.4767 -10.5211 33.6563
lradius 36.2758
lwrist 2.68224
lhand -17.6984 -26.8645
lfingers 7.12502
lthumb 8.56142 2.94195
rfemur 17.3188 -3.43828 26.0605
rtibia 8.67417
rfoot -19.9711 -7.51571
rtoes 27.5943
lfemur 7.5136 4.29514 -2.22684
ltibia 45.198
lfoot -11.3014 0.578789
ltoes -23.4453
2961
root -25.0479 16.8157 12.2164 1252.47 -51.925 537.419
lowerback -0.794475 0.340948 -1.28379
upperback 1.34685 0.462096 0.433786
thorax 1.81131 0.206612 1.17472
lowerneck -25.5506 1.34129 2.53997
upperneck 25.8172 -0.5293 3.45065
head 12.9093 0.411124 0.794693
rclavicle -2.26863e-014 3.97569e-016
rhumerus 37.177 13.642 -35.4981
rradius 39.7736
rwrist -4.73144
rhand -7.57778 -30.7061
rfingers 7.12502
rthumb 18.3151 -59.8638
lclavicle -2.26863e-014 3.97569e-016
lhumerus 37.5149 -10.606 33.1215
lradius 36.567
lwrist 3.26729
lhand -17.9058 -25.6364
lfingers 7.12502
lthumb 8.36128 4.17811
rfemur 17.7398 -3.09282 26.7061
rtibia 8.4361
rfoot -20.9852 -6.88207
rtoes 29.8664
lfemur 6.95302 3.89289 -2.05039
ltibia 44.8613
lfoot -12.0966 0.89899
ltoes -20.9307
2962
root -25.0996 16.8174 12.1548 1251.62 -51.0578 538.702
lowerback -0.968976 0.321711 -0.40524
upperback 1.30086 0.416543 0.702285
thorax 1.86738 0.193599 0.957259
lowerneck -25.8693 1.44335 2.67786
upperneck 25.9897 -0.421413 3.32298
head 13.0414 0.460431 0.747078
rclavicle 4.62174e-014 -4.77083e-015
rhumerus 37.4396 13.4293 -35.7611
rradius 39.6189
rwrist -4.62657
rhand -7.83499 -30.2864
rfingers 7.12502
rthumb 18.0676 -59.4672
lclavicle 4.62174e-014 -4.77083e-015
lhumerus 37.6132 -10.5939 32.5648
lradius 36.7871
lwrist 3.77381
lhand -18.0787 -24.4641
lfingers 7.12502
lthumb 8.19436 5.35698
rfemur 17.9704 -2.3689 28.0525
rtibia 8.10068
rfoot -21.4945 -6.90922
rtoes 29.7035
lfemur 6.09736 3.5952 -1.38292
ltibia 44.5693
lfoot -12.6204 1.35889
ltoes -21.114
2963
root -25.1575 16.8094 12.0928 1252.06 -50.2279 538.041
lowerback -0.921456 0.309516 -0.776232
upperback 1.30797 0.407683 0.680234
thorax 1.84587 0.184384 1.14217
lowerneck -26.4833 1.80684 2.89679
upperneck 26.5631 0.0194033 3.10576
head 13.3974 0.65694 0.721386
rclavicle 8.19987e-015 3.69739e-014
rhumerus 37.8692 13.7338 -35.208
rradius 40.1535
rwrist -5.22436
rhand -7.59721 -30.5019
rfingers 7.12502
rthumb 18.2964 -59.6614
lclavicle 8.19987e-015 3.69739e-014
lhumerus 37.6098 -10.3374 32.33
lradius 36.7788
lwrist 3.81905
lhand -17.9818 -24.3003
lfingers 7.12502
lthumb 8.28794 5.51715
rfemur 18.6877 -1.86278 27.6848
rtibia 7.5494
rfoot -21.6002 -6.45704
rtoes 29.6952
lfemur 5.62384 3.19657 -2.26117
ltibia 44.1309
lfoot -13.2315 1.82445
ltoes -19.8542
2964
root -25.2141 16.8045 12.0304 1252.02 -49.3387 538.271
lowerback -1.06478 0.337995 -0.478513
upperback 1.18928 0.440082 0.768657
thorax 1.80524 0.204954 1.06713
lowerneck -27.1548 1.15379 2.72458
upperneck 27.0157 -0.88874 3.03992
head 13.7256 0.241738 0.559329
rclavicle 6.98231e-014 -7.55382e-015
rhumerus 38.0596 13.5406 -35.5768
rradius 39.6553
rwrist -4.79485
rhand -7.06418 -30.1387
rfingers 7.12502
rthumb 18.8091 -59.2493
lclavicle 6.98231e-014 -7.55382e-015
lhumerus 37.6095 -10.2545 32.2757
lradius 36.7931
lwrist 3.83131
lhand -17.8935 -24.4928
lfingers 7.12502
lthumb 8.37309 5.32126
rfemur 19.1093 -1.86791 27.747
rtibia 7.13846
rfoot -21.5679 -5.53415
rtoes 29.8015
lfemur 4.93202 2.85031 -2.44218
ltibia 43.7497
lfoot -13.6764 1.89545
ltoes -18.1691
2965
root -25.2688 16.801 11.972 1252.02 -48.6568 538.542
lowerback -1.35398 0.323208 -0.176838
upperback 1.10426 0.414049 0.814192
thorax 1.8828 0.195815 0.945578
lowerneck -27.062 1.19006 2.78788
upperneck 27.017 -0.847816 2.98989
head 13.7069 0.256244 0.535663
rclavicle 2.76808e-014 1.70955e-014
rhumerus 38.2055 13.4416 -35.6773
rradius 39.7285
rwrist -4.6701
rhand -6.65361 -30.4419
rfingers 7.12502
rthumb 19.2039 -59.5138
lclavicle 2.76808e-014 1.70955e-014
lhumerus 37.7157 -10.0117 32.3707
lradius 36.7124
lwrist 3.2869
lhand -17.7051 -24.9389
lfingers 7.12502
lthumb 8.55495 4.86777
rfemur 19.4482 -1.71432 27.9195
rtibia 6.70814
rfoot -21.2638 -4.7412
rtoes 29.4763
lfemur 4.02008 2.31749 -2.68795
ltibia 43.4009
lfoot -14.1115 1.86969
ltoes -15.9969
2966
root -25.3267 16.7969 11.9159 1251.76 -48.0168 539.123
lowerback -1.4666 0.292639 0.406094
upperback 0.950585 0.359796 0.854306
thorax 1.79272 0.176177 0.65831
lowerneck -27.0252 1.23533 2.98193
upperneck 27.1462 -0.859166 2.91677
head 13.7543 0.258986 0.471929
rclavicle 3.57812e-015 3.02153e-014
rhumerus 38.033 13.3814 -35.9262
rradius 39.6366
rwrist -4.54125
rhand -6.8231 -30.1452
rfingers 7.12502
rthumb 19.0409 -59.2332
lclavicle 3.57812e-015 3.02153e-014
lhumerus 37.8436 -9.87806 32.3305
lradius 36.5662
lwrist 2.74577
lhand -17.3927 -25.5153
lfingers 7.12502
lthumb 8.85641 4.27884
rfemur 19.7899 -1.53984 28.364
rtibia 6.34168
rfoot -20.999 -4.05904
rtoes 29.3033
lfemur 3.11147 1.59654 -2.71673
ltibia 43.0366
lfoot -14.0278 2.05213
ltoes -21.763
2967
root -25.3818 16.793 11.8585 1251.25 -46.9354 540.081
lowerback -1.63785 0.392454 1.31334
upperback 0.839775 0.46493 0.995062
thorax 1.78081 0.237158 0.298078
lowerneck -26.9095 1.2548 3.00499
upperneck 27.1206 -0.848357 2.94199
head 13.7205 0.266272 0.478742
rclavicle -5.63058e-014 7.95139e-015
rhumerus 37.996 13.0274 -36.577
rradius 39.5593
rwrist -3.91436
rhand -6.82648 -29.9256
rfingers 7.12502
rthumb 19.0377 -59.0139
lclavicle -5.63058e-014 7.95139e-015
lhumerus 37.957 -10.2882 31.602
lradius 36.8709
lwrist 3.74126
lhand -17.4997 -25.1983
lfingers 7.12502
lthumb 8.75312 4.60017
rfemur 19.9614 -1.42976 29.0295
rtibia 6.24283
rfoot -21.6244 -2.81668
rtoes 30.493
lfemur 2.37747 1.1795 -2.28121
ltibia 42.5687
lfoot -14.8538 1.60381
ltoes -15.8944
2968
root -25.4315 16.7838 11.797 1251.58 -46.1282 539.578
lowerback -1.4971 0.429999 0.999923
upperback 0.778397 0.528081 0.954987
thorax 1.63649 0.265529 0.432997
lowerneck -26.8816 1.19983 2.89354
upperneck 27.0996 -0.882983 2.9573
head 13.7058 0.240108 0.496105
rclavicle 6.44559e-014 2.14687e-014
rhumerus 38.1595 13.2815 -36.2625
rradius 39.6715
rwrist -4.06181
rhand -6.96007 -29.82
rfingers 7.12502
rthumb 18.9092 -58.9208
lclavicle 6.44559e-014 2.14687e-014
lhumerus 37.9162 -11.0749 30.4581
lradius 37.5722
lwrist 5.25406
lhand -17.7898 -24.5717
lfingers 7.12502
lthumb 8.47318 5.23828
rfemur 20.4983 -1.15911 28.5625
rtibia 6.06642
rfoot -22.2732 -1.71573
rtoes 31.832
lfemur 1.8406 0.538272 -3.07481
ltibia 42.0078
lfoot -14.9021 1.80551
ltoes -19.6884
